# xmcd
#
# Track frame offsets: 
#        150
#        5483
#        22841
#        43335
#        67330
#        88478
#        114021
#        139581
#        163244
#        193491
#        218436
#        245445
#        265863
#        287339
#        311318
#
# Disc length: 4562 seconds
#
# Revision: 3
# Processed by: cddbd v1.5.2PL0 Copyright (c) Steve Scherf et al.
# Submitted via: ExactAudioCopyFreeDBPlugin 1.0
#
DISCID=d411d00f
DTITLE=Diam's - Dans Ma Bulle
DYEAR=2006
DGENRE=Rap
TTITLE0=Introduction
TTITLE1=La Boulette (Génération Nan Nan)
TTITLE2=Ma France À Moi
TTITLE3=Feuille Blanche
TTITLE4=Jeune Demoiselle
TTITLE5=Car Tu Portes Mon Nom
TTITLE6=Marine
TTITLE7=Dans Ma Bulle
TTITLE8=Par Amour
TTITLE9=Big Up
TTITLE10=Confessions Nocturnes (avec Vitaa)
TTITLE11=T.S.
TTITLE12=Me Revoilà
TTITLE13=Cause À Effet
TTITLE14=Petite Banlieusarde
EXTD=
EXTT0=
EXTT1=
EXTT2=
EXTT3=
EXTT4=
EXTT5=
EXTT6=
EXTT7=
EXTT8=
EXTT9=
EXTT10=
EXTT11=
EXTT12=
EXTT13=
EXTT14=
PLAYORDER=
